<?xml version="1.0" encoding="UTF-8"?>
<svg id="Layer_1" xmlns="http://www.w3.org/2000/svg" xmlns:xlink="http://www.w3.org/1999/xlink" version="1.1" viewBox="0 0 1000 1000">
  <!-- Generator: Adobe Illustrator 30.1.0, SVG Export Plug-In . SVG Version: 2.1.1 Build 136)  -->
  <defs>
    <style>
      .st0 {
        fill: url(#linear-gradient1);
      }

      .st1 {
        fill: url(#linear-gradient);
      }

      .st2 {
        fill: #fff;
      }

      .st3 {
        fill: #003792;
      }
    </style>
    <linearGradient id="linear-gradient" x1="500" y1="989.74" x2="500" y2="7.32" gradientUnits="userSpaceOnUse">
      <stop offset=".19" stop-color="#003792"/>
      <stop offset="1" stop-color="#12aeff"/>
    </linearGradient>
    <linearGradient id="linear-gradient1" x1="274.55" y1="768.05" x2="664.7" y2="239.72" gradientUnits="userSpaceOnUse">
      <stop offset="0" stop-color="#25bb9e"/>
      <stop offset="1" stop-color="#248782"/>
    </linearGradient>
  </defs>
  <path class="st1" d="M867.66,0H132.34C59.25,0,0,59.25,0,132.34h0v735.33h0c0,73.09,59.25,132.34,132.34,132.34h735.33c73.09,0,132.34-59.25,132.34-132.34h0V132.34h0C1000,59.25,940.75,0,867.66,0h0Z"/>
  <polygon class="st0" points="878.2 245.98 497.95 26.45 117.71 245.99 117.71 685.06 497.96 904.59 878.21 685.05 878.2 245.98"/>
  <g>
    <path class="st2" d="M204.35,381.26c3.58,10.62,12.26,17.54,33.47,17.54,19.44,0,24.62-5.51,24.62-13.3,0-8.36-5.81-12.95-32.84-17.56-48.62-8.35-56.81-24.31-56.81-42.42,0-27.69,26.66-41.77,59.75-41.77,46.89,0,60.54,23.79,62.1,40.4h-36.63c-1.72-6.16-5.92-14.32-26.52-14.32-14.56,0-21.37,4.55-21.37,12.13,0,7.05,5.6,10.29,29.58,14.67,52.03,9.43,60.33,25.11,60.33,45.05,0,24.14-19.04,43.22-65.51,43.22-43.65,0-62.88-19.3-66.93-43.64h36.77Z"/>
    <path class="st2" d="M426.48,392.69c0,9.76-.19,19.93,0,29.48h-34.47c-.39-2.7-.4-6.8-.59-10.62-5.1,7.16-12.46,13.32-33.27,13.32s-37.32-12.44-37.32-41.81v-61.17h35.26v55.57c0,12.76,4.54,20.72,16.43,20.72,13.79,0,18.71-8.16,18.71-29.37v-46.92h35.25v70.79Z"/>
    <path class="st2" d="M556.53,387.65c-3.84,19.18-20.21,37.22-54.43,37.22-39.69,0-56.52-24.52-56.52-53.14,0-26.97,19.39-52.54,56.53-52.54,41.44,0,52.72,26.98,53.67,37.61h-35.03c-1.51-4.74-5.65-12.03-18.17-12.03-15.12,0-21.16,11.26-21.16,26.78s5.67,27.58,20.98,27.58c10.25,0,15.36-3.48,19.11-11.47h35.03Z"/>
    <path class="st2" d="M678.82,392.69c0,9.76-.19,19.93,0,29.48h-34.47c-.39-2.7-.4-6.8-.59-10.62-5.1,7.16-12.46,13.32-33.27,13.32s-37.32-12.44-37.32-41.81v-61.17h35.26v55.57c0,12.76,4.54,20.72,16.43,20.72,13.79,0,18.71-8.16,18.71-29.37v-46.92h35.25v70.79Z"/>
    <path class="st2" d="M703.47,349.31c0-9.14,0-18.42-.19-27.41h34.44c.59,3.7.99,14.82.99,19.47,5.33-12.53,16.92-22.55,38.07-21.99v31.72c-22.66-.42-38.05,7.5-38.05,35.8v35.27h-35.25v-72.86Z"/>
    <path class="st2" d="M791.08,278.85h35.25v26.03h-35.25v-26.03ZM791.08,321.9h35.25v100.28h-35.25v-100.28Z"/>
  </g>
  <g>
    <path class="st2" d="M207.74,445.07h72.1c31.24,0,53.49,15.7,53.49,43.34s-20.21,45.02-54.16,45.02h-34.51v47.33h-36.92v-135.69ZM244.65,505.6h31.53c12.82,0,20.63-4.65,20.63-16.63,0-9.89-5.91-16.25-20.63-16.25h-31.53v32.88Z"/>
    <path class="st2" d="M454.72,551.28c0,9.76-.19,19.93,0,29.48h-34.47c-.39-2.7-.4-6.8-.59-10.62-5.1,7.16-12.46,13.32-33.27,13.32s-37.32-12.44-37.32-41.81v-61.17h35.26v55.57c0,12.76,4.54,20.72,16.43,20.72,13.79,0,18.71-8.16,18.71-29.37v-46.92h35.25v70.79Z"/>
    <path class="st2" d="M479.37,507.9c0-9.14,0-18.42-.19-27.41h34.44c.59,3.7.99,14.82.99,19.47,5.33-12.53,16.92-22.55,38.07-21.99v31.72c-22.66-.42-38.05,7.5-38.05,35.8v35.27h-35.25v-72.86Z"/>
    <path class="st2" d="M678,569.92c0,35.83-16.78,55.28-59.67,55.28-45.9,0-53.67-24.98-55.41-35.89h35.54c2.09,5.55,7.02,10.68,21.77,10.68,18.26,0,22.89-11.66,22.89-27.15v-4.09c-5.79,7.31-13.31,13.09-32.4,13.09-29.16,0-48.55-22.94-48.55-50,0-30.97,22.14-54.06,51.06-54.06,20.58,0,27.54,7.84,29.89,13.08.19-3.27.39-8.07.58-10.38h34.49c-.19,9.6-.2,19.61-.2,29.63v59.81ZM598.21,530.67c0,13.02,7.34,24.83,22.69,24.83s22.87-8.8,22.87-25.79c0-14.74-7.3-25.21-22.12-25.21s-23.44,10.8-23.44,26.18Z"/>
    <path class="st2" d="M731.86,539.11c.74,10.56,8.48,18.95,22.13,18.95,11.04,0,15.95-3.09,19.17-8.42h35.09c-6.13,18.21-21.24,33.83-54.47,33.83-42.49,0-56.97-27.41-56.97-52.77,0-27.8,18.7-52.91,56.78-52.91s55.81,26.71,55.81,53.13c0,2.6,0,4.85-.19,8.2h-77.35ZM773.92,518.34c-.56-6.83-4.19-16.7-20.28-16.7s-20.66,8.16-21.41,16.7h41.68Z"/>
  </g>
  <path class="st2" d="M253.44,914.35c-13.79-1.72-59.63-8.27-86.51-47.56-17.23-25.16-21.03-53.08-21.03-82.72,0-60.32,21.03-87.54,44.12-103.74,24.47-16.54,59.63-25.16,122.01-25.16,44.81,0,104.43,4.13,138.21,38.6,15.51,16.2,32.05,45.15,32.05,95.82,0,29.64-6.55,50.67-11.37,62.04-27.57,63.76-101.33,66.87-159.23,66.87-4.14,0-35.16-.34-58.25-4.14"/>
  <path class="st3" d="M379.59,820.26c2.41-.69,26.19-1.72,36.19-16.2,3.1-4.83,4.82-11.38,4.82-17.23,0-5.52-1.72-17.23-14.82-25.16-19.65-12.06-75.14-11.37-96.51-11.37-10,0-36.19-.69-64.8,3.45-5.86,1.03-35.85,3.45-35.16,32.05,0,16.54,9.99,26.88,25.5,31.02,15.51,4.14,41.02,5.86,79.27,5.86,8.96.69,37.57,1.38,65.49-2.41"/>
  <path class="st2" d="M624.64,914.35c-13.79-1.72-59.63-8.27-86.51-47.56-17.23-25.16-21.03-53.08-21.03-82.72,0-60.32,21.03-87.54,44.12-103.74,24.47-16.54,59.63-25.16,122.01-25.16,44.81,0,104.43,4.13,138.21,38.6,15.51,16.2,32.05,45.15,32.05,95.82,0,29.64-6.55,50.67-11.37,62.04-27.57,63.76-101.33,66.87-159.23,66.87-4.14,0-35.16-.34-58.25-4.14"/>
  <path class="st3" d="M750.79,820.26c2.41-.69,26.19-1.72,36.19-16.2,3.1-4.83,4.82-11.38,4.82-17.23,0-5.52-1.72-17.23-14.82-25.16-19.65-12.06-75.14-11.37-96.51-11.37-10,0-36.19-.69-64.8,3.45-5.86,1.03-35.85,3.45-35.16,32.05,0,16.54,9.99,26.88,25.5,31.02,15.51,4.14,41.02,5.86,79.27,5.86,8.96.69,37.57,1.38,65.49-2.41"/>
</svg>